<?xml version="1.0" encoding="UTF-8" standalone="no"?>
<svg
   xmlns:dc="http://purl.org/dc/elements/1.1/"
   xmlns:cc="http://creativecommons.org/ns#"
   xmlns:rdf="http://www.w3.org/1999/02/22-rdf-syntax-ns#"
   xmlns:svg="http://www.w3.org/2000/svg"
   xmlns="http://www.w3.org/2000/svg"
   xmlns:sodipodi="http://sodipodi.sourceforge.net/DTD/sodipodi-0.dtd"
   xmlns:inkscape="http://www.inkscape.org/namespaces/inkscape"
   id="b878182f-c13f-4955-8361-14219c844ca9"
   data-name="Layer 1"
   width="286.52927"
   height="573.63165"
   viewBox="0 0 286.52926 573.63164"
   version="1.1"
   sodipodi:docname="undraw_sentiment_analysis.svg"
   inkscape:version="0.92.4 (5da689c313, 2019-01-14)">
  <metadata
     id="metadata4587">
    <rdf:RDF>
      <cc:Work
         rdf:about="">
        <dc:format>image/svg+xml</dc:format>
        <dc:type
           rdf:resource="http://purl.org/dc/dcmitype/StillImage" />
        <dc:title>sentiment_analysis</dc:title>
      </cc:Work>
    </rdf:RDF>
  </metadata>
  <defs
     id="defs4585" />
  <sodipodi:namedview
     pagecolor="#ffffff"
     bordercolor="#666666"
     borderopacity="1"
     objecttolerance="10"
     gridtolerance="10"
     guidetolerance="10"
     inkscape:pageopacity="0"
     inkscape:pageshadow="2"
     inkscape:window-width="1920"
     inkscape:window-height="1001"
     id="namedview4583"
     showgrid="false"
     inkscape:zoom="0.69081069"
     inkscape:cx="-165.4835"
     inkscape:cy="156.81858"
     inkscape:window-x="-9"
     inkscape:window-y="-9"
     inkscape:window-maximized="1"
     inkscape:current-layer="b878182f-c13f-4955-8361-14219c844ca9"
     fit-margin-top="0"
     fit-margin-left="0"
     fit-margin-right="0"
     fit-margin-bottom="0" />
  <title
     id="title4518">sentiment_analysis</title>
  <path
     d="m 286.02928,136.57869 h -3.14633 V 50.386 A 49.886,49.886 0 0 0 232.99683,0.5 H 50.38612 A 49.886,49.886 0 0 0 0.5,50.386 v 472.85965 a 49.886,49.886 0 0 0 49.88612,49.886 h 182.61069 a 49.886,49.886 0 0 0 49.88612,-49.886 V 197.93208 h 3.14635 z"
     id="path4530"
     style="fill:#2f2f2f;fill-opacity:1;stroke:#ffffff;stroke-opacity:1"
     inkscape:connector-curvature="0" />
  <path
     d="m 272.26437,50.73459 v 472.16017 a 37.40272,37.40272 0 0 1 -13.68029,28.8618 34.61684,34.61684 0 0 1 -2.94959,2.16733 37.08606,37.08606 0 0 1 -20.62616,6.22691 H 51.51911 A 36.8278,36.8278 0 0 1 42.69144,559.09359 37.25486,37.25486 0 0 1 14.26307,522.89476 V 50.73459 a 37.25941,37.25941 0 0 1 37.256,-37.256 h 22.26482 a 17.69523,17.69523 0 0 0 16.38675,24.37924 h 104.61089 a 17.71694,17.71694 0 0 0 16.39733,-24.37924 h 23.82947 a 37.25941,37.25941 0 0 1 37.25604,37.256 z"
     id="path4532"
     style="opacity:0.16000001;fill:#ff9800;fill-opacity:1"
     inkscape:connector-curvature="0" />
  <path
     id="path4658-7"
     d="m 190.93111,393.0623 c -4.43826,-21.87272 -23.45936,-38.35148 -46.60015,-38.35148 -18.38706,0 -34.23798,10.46006 -42.16498,25.67075 -19.0211,1.90211 -33.91942,18.0685 -33.91942,37.73291 0,20.92012 17.1159,38.0422 38.0422,38.0422 h 82.42477 c 17.43446,0 31.70183,-14.26737 31.70183,-31.70183 A 31.315225,31.315225 0 0 0 190.93111,393.0623 Z m -36.45866,18.69635 v 24.09339 h -20.28917 v -24.09339 h -21.55725 l 31.70184,-31.68637 31.70183,31.70184 z"
     inkscape:connector-curvature="0"
     style="fill:#ffffff;fill-opacity:1;stroke-width:1" />
  <g
     id="g4930"
     transform="translate(-36.68117,6.395352)">
    <path
       id="path4554"
       d="m 87.089844,153.89062 a 21.14419,21.14419 0 0 0 0.878906,42.26954 21.16841,21.16841 0 0 0 21.14453,-21.14454 21.14419,21.14419 0 0 0 -22.023436,-21.125 z m 0.878906,2.09571 a 19.05124,19.05124 0 0 1 19.0293,19.02929 19.02977,19.02977 0 1 1 -19.0293,-19.02929 z m -8.457031,10.57226 a 3.1716299,3.1716299 0 0 0 -3.171875,3.17188 3.1716299,3.1716299 0 0 0 3.171875,3.17187 3.1716299,3.1716299 0 0 0 3.169922,-3.17187 3.1716299,3.1716299 0 0 0 -3.169922,-3.17188 z m 15.857422,0 a 3.1716299,3.1716299 0 0 0 -3.171875,3.17188 3.1716299,3.1716299 0 0 0 3.171875,3.17187 3.1716299,3.1716299 0 0 0 3.171875,-3.17187 3.1716299,3.1716299 0 0 0 -3.171875,-3.17188 z m -15.902344,13.74414 a 1.05721,1.05721 0 0 0 0.04492,2.11329 h 15.857422 a 1.05721,1.05721 0 0 0 0,-2.11329 h -15.85742 a 1.05721,1.05721 0 0 0 -0.04492,0 z"
       style="opacity:0.5;fill:#ffffff;fill-opacity:1"
       inkscape:connector-curvature="0" />
    <path
       inkscape:connector-curvature="0"
       style="opacity:0.5;fill:#ffffff;fill-opacity:1;stroke-width:1"
       id="path4570"
       d="m 271.04262,153.82419 a 21.21058,21.21058 0 0 0 0.88202,42.40244 21.234884,21.234884 0 0 0 21.20991,-21.21088 21.21058,21.21058 0 0 0 -22.09193,-21.19156 z m 0.88202,2.10275 a 19.111059,19.111059 0 0 1 19.08882,19.08881 19.089522,19.089522 0 1 1 -19.08882,-19.08881 z m -8.48435,10.60543 a 3.1815845,3.1815845 0 0 0 -3.18163,3.18067 3.1815845,3.1815845 0 0 0 3.18163,3.18163 3.1815845,3.1815845 0 0 0 3.18163,-3.18163 3.1815845,3.1815845 0 0 0 -3.18163,-3.18067 z m 15.90719,0 a 3.1815845,3.1815845 0 0 0 -3.18163,3.18067 3.1815845,3.1815845 0 0 0 3.18163,3.18163 3.1815845,3.1815845 0 0 0 3.18163,-3.18163 3.1815845,3.1815845 0 0 0 -3.18163,-3.18067 z m -0.003,13.78707 a 1.0603437,1.0603437 0 0 0 -0.68226,0.2509 c -4.23486,3.58964 -9.0248,3.56295 -14.64592,-0.0811 a 1.0603042,1.0603042 0 0 0 -1.15318,1.77947 c 3.19557,2.06824 6.21927,3.1025 9.07204,3.1025 2.889,0 5.59616,-1.0605 8.09834,-3.18259 a 1.0603437,1.0603437 0 0 0 -0.68902,-1.86922 z" />
    <polygon
       id="polygon4578"
       points="247.543,241.557 247.543,217.946 251.836,217.946 251.836,245.849 223.932,245.849 223.932,241.557 "
       style="fill:#ffffff" />
    <polygon
       id="polygon4580"
       points="138.074,104.183 138.074,108.476 114.463,108.476 114.463,132.087 110.17,132.087 110.17,104.183 "
       style="fill:#ffffff" />
    <path
       inkscape:connector-curvature="0"
       d="m 179.20922,132.01537 a 43.039041,43.039041 0 0 0 1.79299,86.03973 43.087669,43.087669 0 0 0 43.03577,-43.03975 43.039041,43.039041 0 0 0 -44.82876,-42.99998 z m 1.79299,4.26582 a 38.779509,38.779509 0 0 1 38.73416,38.73416 38.735135,38.735135 0 1 1 -38.73416,-38.73416 z m -17.21829,21.51986 a 6.455859,6.455859 0 0 0 -6.45635,6.45636 6.455859,6.455859 0 0 0 6.45635,6.45635 6.455859,6.455859 0 0 0 6.45637,-6.45635 6.455859,6.455859 0 0 0 -6.45637,-6.45636 z m 32.2818,0 a 6.455859,6.455859 0 0 0 -6.45637,6.45636 6.455859,6.455859 0 0 0 6.45637,6.45635 6.455859,6.455859 0 0 0 6.45238,-6.45635 6.455859,6.455859 0 0 0 -6.45238,-6.45636 z m -14.76535,27.66613 a 32.524167,32.524167 0 0 0 -18.58985,4.9019 2.1521566,2.1521566 0 1 0 2.14682,3.7291 28.134444,28.134444 0 0 1 30.13498,0 2.1476175,2.1476175 0 0 0 1.06943,0.28625 2.1518716,2.1518716 0 0 0 1.07737,-4.01535 32.524167,32.524167 0 0 0 -15.83875,-4.9019 z"
       id="path4923"
       style="opacity:1;fill:#ffffff;fill-opacity:1;stroke-width:1" />
  </g>
</svg>
