<?xml version="1.0" encoding="utf-8"?>
<!-- Generator: Adobe Illustrator 23.0.1, SVG Export Plug-In . SVG Version: 6.00 Build 0)  -->
<svg version="1.1" id="Livello_1" xmlns="http://www.w3.org/2000/svg" xmlns:xlink="http://www.w3.org/1999/xlink" x="0px" y="0px"
	 viewBox="0 0 986 101" style="enable-background:new 0 0 986 101;" xml:space="preserve">
<style type="text/css">
	.st0{fill:#FFFFFF;}
</style>
<g>
	<path class="st0" d="M1.1,5.4c0-2.1,1-3.1,2.9-3.1h62.7c1.1,0,1.9,0.3,2.4,0.9c0.5,0.6,0.7,1.4,0.7,2.4v11.5c0,0.8-0.3,1.5-0.8,2.1
		c-0.5,0.6-1.4,0.9-2.4,0.9H20.3v19.7h35.6c0.9-0.1,1.6,0.1,2.1,0.6c0.5,0.5,0.8,1.2,0.8,2.3v11.8c0,0.8-0.2,1.5-0.6,2.1
		c-0.4,0.6-1.1,0.9-2.1,0.9H20.3V81h47.9c1.2,0,2,0.3,2.4,0.8s0.6,1.3,0.6,2.4v11.9c0,1.8-1,2.7-2.9,2.7H4c-0.8,0-1.5-0.2-2-0.6
		c-0.6-0.4-0.8-1.1-0.8-2.1V5.4z"/>
	<path class="st0" d="M92.2,5.2c0.1-0.8,0.4-1.5,1-2c0.6-0.5,1.3-0.8,2.1-0.8h16.3c1.5,0,2.5,0.8,3,2.5l22.9,64
		c3.9-10.7,7.7-21.4,11.6-32c3.9-10.6,7.7-21.2,11.5-32c0.6-1.6,1.6-2.5,3-2.5H180c0.9,0,1.6,0.3,2.1,0.8c0.5,0.6,0.8,1.2,0.9,2
		c1.6,15.2,3.2,30.4,4.9,45.4c1.6,15.1,3.3,30.2,4.9,45.4v0.2c0,1.8-1,2.7-2.9,2.7h-12.6c-2,0-3-1-3.1-2.9l-6.6-61.5L146,94.3
		c-0.2,0.6-0.6,1.2-1,1.7c-0.5,0.5-1,0.8-1.5,0.8h-11.7c-0.6,0-1.1-0.2-1.6-0.7c-0.5-0.5-0.8-1.1-1-1.7c-3.6-10-7.1-20-10.7-29.8
		c-3.6-9.9-7.2-19.8-10.9-29.9L100.9,96c0,1.9-1,2.9-3,2.9H85.3c-1.9,0-2.9-1-2.9-2.9L92.2,5.2z"/>
	<path class="st0" d="M205.6,50.7c0-4.5,0.6-8.9,1.8-13.2c1.2-4.2,2.8-8.2,5-11.9c2.2-3.7,4.8-7,7.8-10.1c3-3,6.4-5.6,10-7.8
		c3.7-2.1,7.6-3.8,11.9-5c4.2-1.2,8.6-1.8,13.2-1.8c4.5,0,8.9,0.6,13.2,1.8c4.2,1.2,8.2,2.9,11.9,5c3.7,2.1,7,4.7,10.1,7.8
		c3,3,5.6,6.4,7.8,10.1c2.1,3.7,3.8,7.6,5,11.9c1.2,4.2,1.8,8.7,1.8,13.3c0,4.6-0.6,9-1.8,13.2c-1.2,4.2-2.9,8.1-5,11.8
		c-2.1,3.7-4.7,7-7.8,10c-3,3-6.4,5.6-10.1,7.7c-3.7,2.1-7.6,3.8-11.9,5c-4.2,1.2-8.6,1.8-13.2,1.8c-4.6,0-9-0.6-13.2-1.8
		c-4.2-1.2-8.2-2.8-11.9-5c-3.7-2.2-7-4.8-10-7.8c-3-3-5.6-6.3-7.7-10c-2.1-3.7-3.8-7.6-5-11.8C206.2,59.7,205.6,55.3,205.6,50.7z
		 M224.4,50.5c0,4.4,0.8,8.5,2.4,12.3c1.6,3.8,3.7,7.1,6.5,9.9c2.8,2.8,6,5,9.8,6.7c3.7,1.6,7.8,2.5,12.2,2.5
		c4.3,0,8.4-0.8,12.1-2.5c3.7-1.6,7-3.9,9.8-6.7c2.8-2.8,5-6.1,6.5-9.9c1.6-3.8,2.4-7.9,2.4-12.3c0-4.3-0.8-8.4-2.4-12.2
		c-1.6-3.8-3.8-7.1-6.5-10c-2.8-2.8-6-5.1-9.8-6.7c-3.7-1.6-7.8-2.5-12.1-2.5c-4.4,0-8.4,0.8-12.2,2.5c-3.7,1.6-7,3.9-9.8,6.7
		c-2.8,2.8-4.9,6.2-6.5,10C225.1,42.1,224.4,46.2,224.4,50.5z"/>
	<path class="st0" d="M315.7,5.2c0-0.9,0.3-1.6,0.8-2.1c0.6-0.5,1.3-0.8,2.1-0.8h68.4c0.8,0,1.5,0.2,2.1,0.7c0.6,0.5,1,1.2,1.1,2.1
		v11.4c0,0.9-0.3,1.6-0.8,2.3c-0.5,0.6-1.3,1-2.4,1h-24.7v76c0,0.8-0.3,1.5-0.8,2.1c-0.5,0.6-1.3,0.9-2.2,0.9h-12.8
		c-0.8,0-1.5-0.3-2.1-0.8c-0.6-0.6-0.9-1.3-0.9-2.1v-76h-24.8c-0.9,0-1.6-0.3-2.1-0.8c-0.6-0.5-0.8-1.4-0.8-2.4V5.2z"/>
	<path class="st0" d="M405.6,5.2c0-0.8,0.2-1.5,0.7-2c0.5-0.6,1.2-0.8,2.1-0.8h12.9c0.7,0,1.4,0.3,2.1,0.8c0.6,0.5,1,1.2,1,2.1V96
		c0,1.9-1,2.9-3,2.9h-12.9c-1.9,0-2.9-1-2.9-2.9V5.2z"/>
	<path class="st0" d="M441.6,50.7c0-4.5,0.6-8.9,1.8-13.2c1.2-4.2,2.8-8.2,5-11.9c2.2-3.7,4.8-7,7.8-10.1c3-3,6.4-5.6,10-7.8
		c3.7-2.1,7.6-3.8,11.9-5c4.2-1.2,8.6-1.8,13.2-1.8c4.5,0,8.9,0.6,13.2,1.8c4.2,1.2,8.2,2.9,11.9,5c3.7,2.1,7,4.7,10.1,7.8
		c3,3,5.6,6.4,7.8,10.1c2.1,3.7,3.8,7.6,5,11.9c1.2,4.2,1.8,8.7,1.8,13.3c0,4.6-0.6,9-1.8,13.2c-1.2,4.2-2.9,8.1-5,11.8
		c-2.1,3.7-4.7,7-7.8,10c-3,3-6.4,5.6-10.1,7.7c-3.7,2.1-7.6,3.8-11.9,5c-4.2,1.2-8.6,1.8-13.2,1.8c-4.6,0-9-0.6-13.2-1.8
		c-4.2-1.2-8.2-2.8-11.9-5c-3.7-2.2-7-4.8-10-7.8c-3-3-5.6-6.3-7.7-10c-2.1-3.7-3.8-7.6-5-11.8S441.6,55.3,441.6,50.7z M460.4,50.5
		c0,4.4,0.8,8.5,2.4,12.3c1.6,3.8,3.7,7.1,6.5,9.9c2.8,2.8,6,5,9.8,6.7c3.7,1.6,7.8,2.5,12.2,2.5c4.3,0,8.4-0.8,12.1-2.5
		c3.7-1.6,7-3.9,9.8-6.7c2.8-2.8,5-6.1,6.5-9.9c1.6-3.8,2.4-7.9,2.4-12.3c0-4.3-0.8-8.4-2.4-12.2c-1.6-3.8-3.8-7.1-6.5-10
		c-2.8-2.8-6-5.1-9.8-6.7c-3.7-1.6-7.8-2.5-12.1-2.5c-4.4,0-8.4,0.8-12.2,2.5c-3.7,1.6-7,3.9-9.8,6.7c-2.8,2.8-4.9,6.2-6.5,10
		C461.2,42.1,460.4,46.2,460.4,50.5z"/>
	<path class="st0" d="M558.1,5.2c0-0.8,0.2-1.5,0.7-2.1c0.5-0.6,1.2-0.8,2.1-0.8h15c0.6,0,1.2,0.1,1.7,0.4c0.5,0.3,1,0.7,1.5,1.3
		c7.4,10.6,14.8,21.1,22,31.5c7.3,10.4,14.6,20.9,22,31.5V4.8c0.1-0.8,0.5-1.4,1-1.8c0.5-0.4,1.1-0.6,1.9-0.6h12.5
		c0.9,0,1.6,0.3,2.2,0.8c0.6,0.5,0.9,1.2,0.9,2.1v91c0,1.8-1,2.7-3.1,2.7h-14.1c-1,0-1.8-0.6-2.7-1.8C614.3,86,606.7,75,599.1,64
		c-7.6-11-15.1-22.1-22.7-33.2V96c0,1-0.2,1.7-0.7,2.1c-0.5,0.5-1.2,0.7-2.3,0.7h-12.5c-1,0-1.7-0.2-2.2-0.7c-0.5-0.5-0.7-1.2-0.7-2
		V5.2z"/>
	<path class="st0" d="M656.1,96.4c0.2-0.9,0.5-1.7,0.7-2.4c0.3-0.7,0.5-1.4,0.7-2l35-87.2c0.1-0.5,0.5-1,1.1-1.6s1.4-0.9,2.4-0.9
		h10.5c1,0,1.8,0.3,2.2,0.8c0.5,0.5,0.8,1,1,1.4l2.1,5.1l34.3,85.9c0,0.1,0,0.4,0.1,0.7c0.1,0.3,0.1,0.6,0.1,0.8c0,1.3-1,2-2.9,2
		h-12.8c-1,0-1.7-0.2-2.2-0.6s-1-1-1.3-1.8l-1.2-3c-0.8-2.1-1.6-4.2-2.5-6.2c-0.8-2.1-1.6-4.2-2.4-6.3h-40.1c-1.1,3-2.2,5.9-3.3,8.5
		c-1.1,2.7-2,5-2.7,7c-0.6,1.6-1.7,2.4-3.4,2.4h-13c-0.8,0-1.5-0.2-2-0.5c-0.5-0.3-0.7-0.8-0.7-1.4C656,96.8,656,96.6,656.1,96.4z
		 M701.3,27.1c-2.3,6-4.7,12.2-7,18.6c-2.3,6.4-4.6,12.6-7,18.5H715L701.3,27.1z"/>
	<path class="st0" d="M760.4,5.2c0-0.8,0.3-1.5,0.8-2c0.5-0.6,1.3-0.8,2.2-0.8h12.9c0.8,0,1.5,0.2,2,0.7c0.6,0.5,0.9,1.2,0.9,2.1V81
		h40.7c0.8,0,1.5,0.3,2,0.8c0.6,0.5,0.8,1.3,0.8,2.2v11.9c0,0.8-0.3,1.5-0.8,2c-0.5,0.6-1.2,0.9-2.1,0.9h-56.6c-1.9,0-2.8-1-2.8-2.9
		V5.2z"/>
	<path class="st0" d="M836,5.2c0-0.8,0.3-1.5,0.8-2c0.5-0.6,1.3-0.8,2.2-0.8h12.9c0.8,0,1.5,0.2,2,0.7c0.6,0.5,0.9,1.2,0.9,2.1V81
		h40.7c0.8,0,1.5,0.3,2,0.8c0.6,0.5,0.8,1.3,0.8,2.2v11.9c0,0.8-0.3,1.5-0.8,2c-0.5,0.6-1.2,0.9-2.1,0.9h-56.6c-1.9,0-2.8-1-2.8-2.9
		V5.2z"/>
	<path class="st0" d="M943.8,41.6h0.1l19.7-37.2c0.5-1,0.9-1.5,1.2-1.7c0.3-0.2,0.8-0.3,1.4-0.4h17.9c0.8,0,1.2,0.4,1.2,1.1
		c0,0.4-0.3,0.9-0.8,1.6c-5.2,8.9-10.4,17.8-15.6,26.9c-5.2,9-10.4,18-15.7,26.9v37c0,2-1,3.1-2.9,3.1h-13.3c-1.8,0-2.7-1-2.7-3.1
		V58.9L903.1,5.2c-0.2-0.2-0.4-0.5-0.5-0.9c-0.1-0.4-0.2-0.7-0.2-0.9c0-0.7,0.4-1,1.2-1h17.8c0.3,0.1,0.6,0.1,0.8,0.2
		c0.2,0,0.4,0.1,0.6,0.2c0.2,0.1,0.4,0.3,0.6,0.6c0.2,0.3,0.4,0.7,0.7,1.3L943.8,41.6z"/>
</g>
<g>
</g>
<g>
</g>
<g>
</g>
<g>
</g>
<g>
</g>
<g>
</g>
<g>
</g>
<g>
</g>
<g>
</g>
<g>
</g>
<g>
</g>
<g>
</g>
<g>
</g>
<g>
</g>
<g>
</g>
</svg>
