<?xml version="1.0" encoding="utf-8"?>
<!-- Generator: Adobe Illustrator 23.0.1, SVG Export Plug-In . SVG Version: 6.00 Build 0)  -->
<svg version="1.1" id="Emotionally_x5F_Logo" xmlns="http://www.w3.org/2000/svg" xmlns:xlink="http://www.w3.org/1999/xlink"
	 x="0px" y="0px" viewBox="0 0 518 465" style="enable-background:new 0 0 518 465;" xml:space="preserve">
<style type="text/css">
	.st0{display:none;}
	.st1{display:inline;fill:#FF9800;}
	.st2{fill:#FFC500;}
	.st3{display:none;fill:#FF9800;}
	.st4{fill:url(#SVGID_1_);}
	.st5{fill:#F52C5B;}
	.st6{fill:none;stroke:#212731;stroke-miterlimit:10;}
	.st7{fill:#212731;}
	.st8{fill:url(#SVGID_2_);}
	.st9{fill:#58B3DE;}
	.st10{fill:#382A12;}
	.st11{fill:#F9BF44;}
	.st12{fill:#66337B;}
	.st13{fill:#F6262F;}
	.st14{fill:#A8111C;}
	.st15{fill:#2D090E;}
</style>
<g id="Base" class="st0">
	<path class="st1" d="M398.4,379.5l-72.7-68.7c-17.8,12.7-39.1,19.6-61.1,19.6c-0.8,0-1.6,0-2.4,0l-9.6,43.2
		c18.9,13.6,26.9,38.4,18.8,60.8c-7.5,20.8-27.5,34.8-49.6,34.8c-3.9,0-7.8-0.4-11.6-1.3c-25.9-5.8-43.4-30.1-40.9-56.5
		c2.3-23.7,20.2-42.6,43-46.8l9.6-43.2c-17.4-7.7-32.5-20.1-43.5-35.6l-32.1,14.2c2.2,15.7-0.6,31.7-8.2,45.8
		c-8.9,16.7-23.7,29.2-41.5,35.4c-8,2.8-16.3,4.2-24.6,4.2c-29.7,0-56.7-17.5-68.7-44.7c-7.6-17.3-8.5-36.6-2.4-54.5
		c6.1-17.9,18.6-32.7,35.2-41.7c11-6,23.4-9.1,35.9-9.1c22.5,0,43.5,10,57.7,27l31.9-14.2c-9.8-43,8.4-87.7,45.4-111.7l-3.2-7.8
		c-1,0.1-1.9,0.1-2.9,0.1l-0.1,0c-15.2,0-29.8-5.4-41.3-15.3c-11.4-9.9-19-23.5-21.2-38.5C136.9,64.7,141,45,141.1,45
		C66,43,15.7,69.5,3.9,76.6c-56.7,34.5-100.4,77.4-128.1,140.9c-8.2,18.8-12.5,39.5-18.1,61.1c-5.8,22.3-4,52.6-4,79.8v32.9
		c-3.9,14-9.5,29.2-14.1,42.9c-5.4,16.3-8.6,31.9-14.1,48.3c-4.6,13.8-14.3,33.4-12.7,49.6c2,2.1,3,5.7,5.4,7.4
		c1.7,1.2,3.9,1.4,5.4,2.7c5.9-0.1,26-1.6,29.5,0.7c4,6.1,2.1,23,4,31.5c4.5,19.4,3.6,41.6,8,61.1c1.7,7.4,0.5,14.2,2.7,20.8
		c6.1,18.6,19.9,31.9,38.9,37.6c11.7,3.5,29.7,1.3,43.6,1.3h87.2v158.3v0h240.1c8,0,19.5,1.5,26.2-0.7c0-90.5-5-187.3,17.4-255.6
		c7.4-22.4,15.9-44.2,24.8-64.4c3.6-8.1,6.2-16.1,10.7-23.5c13.4-22,28.2-43.5,38.9-67.8c1.3-2.9,2.5-5.8,3.5-8.8
		c-4.1-8.3-6.3-17.7-6.3-27.5C392.7,396.3,394.7,387.5,398.4,379.5z"/>
	<path class="st1" d="M242.1,113.1l3.2,7.9c6.4-1.2,13-1.8,19.6-1.8c24.7,0,48.9,8.9,67.7,24.8l11.6-9.3c-0.1-0.1-0.2-0.2-0.3-0.4
		c-2.5-2.2-4.9-4.5-7.4-6.7c-7.7-7.7-15.2-14.9-24.1-21.5C303.6,99.7,295,92,285.5,86c-7.1-4.5-14.6-8.5-22.3-12.3
		c-0.4,3-1,6-1.8,8.9C258,94.5,251.3,105.1,242.1,113.1z"/>
	<path class="st1" d="M354,280.7l64.7,61.2c0.2-5.1,0.3-10.3,0.3-15.7c0-9,0.3-18.1-1.3-25.5c-0.4-5.4-0.9-10.7-1.3-16.1
		c-4.5-18.3-6.7-36.7-13.4-53c-9.5-23.1-19.7-45.3-33-64.7l-11.6,9.3C375.5,209.2,373.8,249.3,354,280.7z"/>
</g>
<path id="Rete_x5F_Neurale" class="st2" d="M455.5,352.2c-10.9,0-21.6,3.4-30.5,9.8l-84.4-79.9c24-31.6,25.8-74.9,4.4-108.3l36.2-29
	c24.7,21.9,62,21.2,85.9-1.6s26.3-60,5.7-85.7c-20.7-25.7-57.6-31.3-84.9-12.8s-36,54.8-19.9,83.6l-36.1,28.9
	c-24.2-24.4-59.8-33.7-92.9-24.4l-9.2-22.9c21.9-14.5,29.9-42.9,18.8-66.7s-38.1-35.8-63.3-28.3c-25.2,7.6-41,32.5-37.1,58.5
	c3.9,26,26.2,45.3,52.5,45.2c3.2,0,6.3-0.4,9.4-0.9l9.2,22.9c-40.6,21.7-59.9,69.3-46,113.1l-47,20.9
	c-18.6-28.3-55.8-37.7-85.5-21.5C11,269.3-1.3,305.6,12.4,336.5c13.7,31,48.9,46.2,80.8,35.1s50.1-44.9,41.6-77.7L182,273
	c11.6,19.7,29.8,34.6,51.4,42.1l-13,58.5c-21.5,0.6-39.2,17.2-41.3,38.6c-2.1,21.4,12.1,41,33.1,45.8c21,4.7,42.2-6.9,49.6-27.1
	c7.3-20.2-1.5-42.8-20.7-52.6l13-58.5c3.4,0.4,6.8,0.6,10.3,0.6c22.6,0,44.5-8.1,61.7-22.7l84.4,79.9c-5.2,8.3-8,18-8.1,27.8
	c0,29.3,23.8,53.1,53.1,53.1c29.3,0,53.1-23.8,53.1-53.1C508.6,376,484.9,352.2,455.5,352.2z M168.8,65.5c0-16,11.9-29.6,27.8-31.7
	c15.9-2,30.9,8.1,34.9,23.6c4,15.5-4.1,31.6-19,37.6h-0.1c-3.7,1.5-7.7,2.3-11.7,2.3c-8.5,0-16.6-3.4-22.5-9.3
	C172.1,82,168.8,73.9,168.8,65.5z M73.2,352.2c-23.5,0-42.5-19-42.5-42.5c0-23.5,19-42.5,42.5-42.5s42.5,19,42.5,42.5
	C115.7,333.2,96.6,352.2,73.2,352.2z M221.9,437.2c-11.7,0-21.2-9.5-21.2-21.2s9.5-21.2,21.2-21.2c11.7,0,21.2,9.5,21.2,21.2
	S233.6,437.2,221.9,437.2z M423.7,54.8c23.5,0,42.5,19,42.5,42.5s-19,42.5-42.5,42.5c-23.5,0-42.5-19-42.5-42.5
	S400.2,54.8,423.7,54.8z M190,224.8c0-41.1,33.3-74.3,74.3-74.3c41.1,0,74.3,33.3,74.3,74.3s-33.3,74.3-74.3,74.3
	C223.3,299.1,190.1,265.8,190,224.8z M455.5,437.2c-17.6,0-31.9-14.3-31.9-31.9c0-17.6,14.3-31.9,31.9-31.9
	c17.6,0,31.9,14.3,31.9,31.9C487.4,422.9,473.1,437.2,455.5,437.2z"/>
<circle id="Interno_x5F_Rete" class="st3" cx="264.5" cy="224.5" r="62.5"/>
<g id="Emoji_x5F_1">
	
		<linearGradient id="SVGID_1_" gradientUnits="userSpaceOnUse" x1="105.0056" y1="649.1672" x2="38.9944" y2="534.8328" gradientTransform="matrix(1 0 0 -1 0 902)">
		<stop  offset="0" style="stop-color:#FFE254"/>
		<stop  offset="1" style="stop-color:#FFB255"/>
	</linearGradient>
	<circle class="st4" cx="72" cy="310" r="66"/>
	<path class="st5" d="M105,331.8c8.1,8.1-10.2,20.6-33,20.6s-41.1-12.6-33-20.6c8.2-8.3,10.2,4.1,33,4.1S96.7,323.5,105,331.8z"/>
	<path class="st6" d="M31,303.2c3.9-16.6,24.5-16.4,28.9,0"/>
	<path class="st6" d="M84.6,303.2c3.9-16.6,24.5-16.4,28.9,0"/>
	<path class="st7" d="M105,331.8c-8.3-8.3-10.2,4.1-33,4.1s-24.8-12.4-33-4.1c-5,5,0.2,11.7,10.2,16.1c3.8-2.2,12.5-3.8,22.8-3.8
		s19,1.6,22.8,3.8C104.8,343.5,110,336.7,105,331.8z"/>
	<path class="st7" d="M105,331.8c-8.3-8.3-10.2,4.1-33,4.1s-24.8-12.4-33-4.1c-5,5,0.2,11.7,10.2,16.1c3.8-2.2,12.5-3.8,22.8-3.8
		s19,1.6,22.8,3.8C104.8,343.5,110,336.7,105,331.8z"/>
</g>
<g id="Emoji_x5F_2">
	<linearGradient id="SVGID_2_" gradientUnits="userSpaceOnUse" x1="228.2468" y1="111.5055" x2="172.2372" y2="14.4945">
		<stop  offset="0" style="stop-color:#FFE254"/>
		<stop  offset="1" style="stop-color:#FFB255"/>
	</linearGradient>
	<circle class="st8" cx="200.2" cy="63" r="56"/>
	<g id="Layer_1">
		<path class="st9" d="M190.7,56.5c0-0.1-0.1-0.2-0.1-0.3c-0.1-0.2-0.3-0.4-0.5-0.6c-0.1-0.1-0.2-0.1-0.3-0.2
			c-0.3-0.2-0.6-0.3-1-0.3c-0.2,0-0.4,0-0.5,0.1c0,0,0,0-0.1,0c-0.1,0-0.3,0.1-0.4,0.2c-0.2,0.1-0.4,0.3-0.6,0.5
			c-0.1,0.1-0.1,0.2-0.2,0.3c0,0.1-0.1,0.1-0.1,0.2c-2.4,4.8-8.3,6.6-13.1,4.2c-1.8-0.9-3.3-2.4-4.3-4.2c0-0.1,0-0.1-0.1-0.1
			c-0.1-0.2-0.2-0.3-0.3-0.5c-0.1-0.1-0.3-0.2-0.4-0.3c-0.1-0.1-0.3-0.2-0.5-0.2c0,0,0,0-0.1,0c-0.2-0.1-0.3-0.1-0.5-0.1
			c-0.3,0-0.7,0.1-1,0.3c-0.1,0.1-0.2,0.1-0.3,0.2c-0.2,0.1-0.3,0.3-0.4,0.4c-0.1,0.1-0.1,0.2-0.1,0.3c-0.1,0.1-0.1,0.2-0.1,0.3
			c-0.1,0.2-0.1,0.3-0.1,0.5v48.2c0,0.5,0.2,1,0.6,1.4c0.1,0.1,0.2,0.2,0.3,0.3c6.5,4.8,13.9,8.2,21.8,9.9c0.1,0,0.3,0,0.4,0
			c1.1,0,2-0.9,2-2V57.1c0-0.2,0-0.3-0.1-0.4C190.8,56.6,190.8,56.6,190.7,56.5z"/>
		<path class="st9" d="M235.1,56.7c0-0.1-0.1-0.2-0.1-0.3c0-0.1-0.1-0.2-0.1-0.3c-0.1-0.2-0.2-0.3-0.4-0.4c-0.1-0.1-0.2-0.1-0.3-0.2
			c-0.3-0.2-0.6-0.3-1-0.3c-0.2,0-0.4,0-0.5,0.1c0,0,0,0-0.1,0c-0.2,0-0.3,0.1-0.5,0.2c-0.2,0.1-0.3,0.2-0.4,0.3
			c-0.1,0.1-0.2,0.2-0.3,0.4c0,0.1-0.1,0.1-0.1,0.2c-2.4,4.8-8.3,6.7-13.1,4.2c-1.9-0.9-3.4-2.4-4.3-4.2c0-0.1-0.1-0.1-0.1-0.2
			c-0.1-0.1-0.1-0.2-0.2-0.3c-0.1-0.2-0.3-0.4-0.6-0.5c-0.1-0.1-0.3-0.1-0.4-0.2c0,0,0,0-0.1,0c-0.2-0.1-0.3-0.1-0.5-0.1
			c-0.3,0-0.7,0.1-1,0.3c-0.1,0.1-0.2,0.1-0.3,0.2c-0.2,0.1-0.4,0.3-0.5,0.6c-0.1,0.1-0.1,0.3-0.2,0.4c0,0,0,0,0,0.1
			c-0.1,0.2-0.1,0.3-0.1,0.5V115c0,1.1,0.9,2,2,2c0.1,0,0.3,0,0.4,0h0c7.9-1.8,15.3-5.2,21.8-10.1c0.1-0.1,0.3-0.2,0.4-0.3
			c0.4-0.4,0.6-0.9,0.6-1.4v-48C235.2,57,235.2,56.8,235.1,56.7z"/>
		<path class="st10" d="M178.3,65.8c-5.3,0-10.1-3-12.4-7.7c-0.5-1-0.1-2.2,0.9-2.7c1-0.5,2.2-0.1,2.7,0.9c0,0,0,0,0,0
			c2.4,4.8,8.2,6.8,13.1,4.4c1.9-1,3.5-2.5,4.4-4.4c0.5-1,1.7-1.4,2.7-0.9c1,0.5,1.4,1.7,0.9,2.7C188.3,62.8,183.5,65.8,178.3,65.8z
			"/>
		<path class="st10" d="M174.9,50.5c-3.3,0-6.4-1.2-8.9-3.3c-0.8-0.7-0.9-2-0.2-2.8c0.7-0.8,2-0.9,2.8-0.2c4.1,3.5,10.2,3,13.7-1.1
			c1.4-1.6,2.2-3.7,2.3-5.8c0.1-1.1,1-2,2.1-1.9c1.1,0.1,2,1,1.9,2.1c-0.2,5.3-3.5,9.9-8.3,12C178.6,50.1,176.8,50.5,174.9,50.5z"/>
		<path class="st10" d="M225.6,50.5c-1.9,0-3.8-0.4-5.5-1.1c-4.8-2.1-8.1-6.7-8.3-12c-0.1-1.1,0.8-2.1,1.9-2.1
			c1.1-0.1,2.1,0.8,2.1,1.9c0.3,5.4,4.8,9.5,10.2,9.2c2.2-0.1,4.2-0.9,5.8-2.3c0.8-0.7,2.1-0.6,2.8,0.2c0.7,0.8,0.6,2.1-0.2,2.8
			C232,49.3,228.9,50.5,225.6,50.5z"/>
		<path class="st10" d="M222.6,65.8c-5.3,0-10.1-3-12.4-7.7c-0.5-1-0.1-2.2,0.9-2.7c1-0.5,2.2-0.1,2.7,0.9c0,0,0,0,0,0
			c2.4,4.8,8.2,6.8,13.1,4.4c1.9-1,3.5-2.5,4.4-4.4c0.5-1,1.7-1.4,2.7-0.9c1,0.5,1.4,1.7,0.9,2.7c0,0,0,0,0,0
			C232.7,62.8,227.9,65.8,222.6,65.8z"/>
		<path class="st10" d="M212.1,76.1c-0.4,0-0.7-0.1-1-0.3c-6.6-3.7-14.6-3.8-21.2-0.2c-1,0.5-2.2,0.2-2.7-0.8
			c-0.5-1-0.2-2.2,0.8-2.7l0,0c7.9-4.3,17.5-4.2,25.3,0.3c1,0.6,1.3,1.8,0.7,2.8C213.5,75.7,212.8,76.1,212.1,76.1L212.1,76.1z"/>
	</g>
</g>
<g id="Emoji_x5F_3">
	<circle class="st11" cx="422.4" cy="97.2" r="67.2"/>
	<g id="Layer_1_1_">
		<path class="st12" d="M486.6,77.4c-1.3,1.1-2.7,2.2-4.1,3.2c-14.3,10.1-35.9,16.6-60.1,16.6c-24.2,0-45.8-6.5-60.1-16.6
			c-1.5-1-2.8-2.1-4.1-3.2c10.9-35.5,48.5-55.3,84-44.4C463.4,39.5,480.1,56.2,486.6,77.4z"/>
		<ellipse class="st10" cx="395.5" cy="97.2" rx="6" ry="6.9"/>
		<ellipse class="st10" cx="448.8" cy="97.2" rx="6" ry="6.9"/>
		<path class="st10" d="M456,124.9c-4.6,0-6.9-3.3-8.7-5.9c-1.7-2.4-2.7-3.8-4.7-3.8s-3,1.4-4.7,3.8c-1.8,2.6-4.1,5.9-8.7,5.9
			s-6.9-3.3-8.7-5.9c-1.7-2.4-2.7-3.8-4.7-3.8s-3.1,1.4-4.7,3.8c-1.8,2.6-4.1,5.9-8.7,5.9c-4.6,0-6.9-3.3-8.7-5.9
			c-1.7-2.4-2.7-3.8-4.7-3.8c-1.3,0-2.4-1.1-2.4-2.4c0-1.3,1.1-2.4,2.4-2.4c4.6,0,6.9,3.3,8.7,5.9c1.7,2.4,2.7,3.8,4.7,3.8
			c2,0,3.1-1.4,4.7-3.8c1.8-2.6,4.1-5.9,8.7-5.9s6.9,3.3,8.7,5.9c1.7,2.4,2.7,3.8,4.7,3.8c2,0,3-1.4,4.7-3.8
			c1.8-2.6,4.1-5.9,8.7-5.9c4.6,0,6.9,3.3,8.7,5.9c1.7,2.4,2.7,3.8,4.7,3.8c1.3,0,2.4,1.1,2.4,2.4
			C458.4,123.8,457.4,124.9,456,124.9L456,124.9z"/>
		<path class="st10" d="M393.1,83.4c-3.9,0-7.7-1.4-10.7-4c-1-0.9-1.1-2.4-0.3-3.4c0.9-1,2.4-1.1,3.4-0.3c4.9,4.2,12.3,3.6,16.5-1.3
			c1.7-2,2.7-4.4,2.8-7c0.1-1.3,1.2-2.4,2.5-2.3s2.4,1.2,2.3,2.5c-0.3,6.3-4.2,11.9-10,14.4C397.6,83,395.3,83.4,393.1,83.4z"/>
		<path class="st10" d="M453.9,83.4c-8.8,0-16.1-6.9-16.5-15.7c-0.1-1.3,1-2.5,2.3-2.5c1.3-0.1,2.5,1,2.5,2.3
			c0.3,6.5,5.8,11.4,12.3,11.1c2.6-0.1,5-1.1,7-2.8c1-0.9,2.5-0.7,3.4,0.3c0.9,1,0.7,2.5-0.3,3.4C461.6,82,457.8,83.4,453.9,83.4z"
			/>
	</g>
</g>
<g id="Emoji_x5F_4">
	<circle class="st13" cx="221.8" cy="416.3" r="42.8"/>
	<g id="Layer_1_2_">
		<path class="st14" d="M216.7,412.9l-23.8-7.9c-0.4-0.1-0.8-0.1-1.2,0.1c-0.4,0.2-0.6,0.5-0.8,0.9c-2.4,7.4,1.5,15.3,8.9,17.8
			c1.4,0.5,2.9,0.7,4.4,0.7c6.1,0,11.4-3.9,13.4-9.6C217.9,414,217.5,413.1,216.7,412.9z"/>
		<path class="st14" d="M252.2,405.9c-0.3-0.8-1.1-1.2-1.9-1c0,0,0,0,0,0l-23.7,8c-0.4,0.1-0.7,0.4-0.9,0.8
			c-0.2,0.4-0.2,0.8-0.1,1.2c1.9,5.7,7.3,9.6,13.3,9.6c7.8,0,14.1-6.3,14-14.1C252.9,408.8,252.7,407.3,252.2,405.9z"/>
		<path class="st15" d="M237.9,434.2c-0.6,0-1.1-0.3-1.4-0.9c-4-8.2-13.9-11.5-22-7.5c-3.3,1.6-5.9,4.2-7.5,7.5
			c-0.4,0.8-1.3,1.1-2.1,0.7c-0.8-0.4-1.1-1.3-0.7-2.1c4.8-9.7,16.5-13.7,26.1-8.9c3.9,1.9,7,5,8.9,8.9c0.4,0.8,0.1,1.7-0.7,2.1
			C238.4,434.1,238.2,434.2,237.9,434.2L237.9,434.2z"/>
	</g>
</g>
<g id="Emoji_x5F_5">
	<circle class="st11" cx="455.8" cy="405.3" r="53.5"/>
	<g id="Layer_1_3_">
		<path class="st10" d="M469.1,418.1c-0.2,0-0.4,0-0.6-0.1c-7.5-2.5-15.5-2.6-23-0.3c-1,0.3-2.1-0.2-2.4-1.2s0.2-2.1,1.2-2.4
			c0,0,0,0,0.1,0c8.3-2.5,17.1-2.4,25.4,0.3c1,0.3,1.6,1.4,1.2,2.4C470.7,417.6,470,418.1,469.1,418.1L469.1,418.1z"/>
		<path class="st10" d="M466.8,395.8c-0.3,0-0.6-0.1-0.8-0.2c-0.9-0.5-1.3-1.6-0.8-2.6c0,0,0,0,0,0c2.3-4.5,6.9-7.3,11.9-7.2
			c1.3,0,2.5,0.2,3.7,0.6c3.4,1,6.2,3.4,7.8,6.5c0.5,0.9,0.2,2.1-0.8,2.6c-0.9,0.5-2.1,0.2-2.6-0.8c0,0,0-0.1,0-0.1
			c-1.1-2.2-3.1-3.9-5.5-4.6c-0.9-0.3-1.7-0.4-2.6-0.4c-3.6-0.1-6.8,1.9-8.4,5.1C468.2,395.4,467.6,395.8,466.8,395.8z"/>
		<path class="st10" d="M424.6,386.7c-0.3,0-0.6-0.1-0.8-0.2c-0.9-0.5-1.3-1.6-0.8-2.6c0,0,0,0,0,0c3.3-6.5,11.3-9,17.7-5.7
			c2.4,1.2,4.4,3.2,5.7,5.6c0.5,0.9,0.1,2.1-0.8,2.6c-0.9,0.5-2.1,0.1-2.6-0.8c-1.6-3-4.7-4.9-8.1-5c-3.5-0.1-6.8,1.9-8.4,5.1
			C426,386.3,425.3,386.7,424.6,386.7z"/>
		
			<ellipse transform="matrix(1.357079e-02 -0.9999 0.9999 1.357079e-02 29.5564 831.2543)" class="st10" cx="436.1" cy="400.6" rx="5.5" ry="4.8"/>
		
			<ellipse transform="matrix(1.357079e-02 -0.9999 0.9999 1.357079e-02 70.7786 874.1899)" class="st10" cx="478.5" cy="401.2" rx="5.5" ry="4.8"/>
	</g>
</g>
<g>
</g>
<g>
</g>
<g>
</g>
<g>
</g>
<g>
</g>
<g>
</g>
<g>
</g>
<g>
</g>
<g>
</g>
<g>
</g>
<g>
</g>
<g>
</g>
<g>
</g>
<g>
</g>
<g>
</g>
</svg>
