<?xml version="1.0" encoding="utf-8"?>
<!-- Generator: Adobe Illustrator 23.0.1, SVG Export Plug-In . SVG Version: 6.00 Build 0)  -->
<svg version="1.1" xmlns="http://www.w3.org/2000/svg" xmlns:xlink="http://www.w3.org/1999/xlink" x="0px" y="0px"
	 viewBox="0 0 512 512" style="enable-background:new 0 0 512 512;" xml:space="preserve">
<style type="text/css">
	.st0{fill:none;stroke:#FFFFFF;stroke-width:5;stroke-miterlimit:10;}
	.st1{fill:none;}
	.st2{fill:#FFFFFF;}
	.st3{fill:none;stroke:#FFFFFF;stroke-width:10;stroke-miterlimit:10;}
	.st4{fill:none;stroke:#2C2C2C;stroke-width:5;stroke-miterlimit:10;}
	.st5{fill:#2C2C2C;}
	.st6{fill:none;stroke:#2C2C2C;stroke-width:10;stroke-miterlimit:10;}
</style>
<g id="Dark_x5F_BG">
	<g>
		<g>
			<circle class="st0" cx="256" cy="257" r="231"/>
			<circle class="st0" cx="256" cy="257" r="176"/>
			<g>
				<g>
					<circle class="st1" cx="256" cy="257" r="217.54"/>
					<path class="st2" d="M240.62,446.44l-0.77,4.94l-20.2-3.13c-1.38-0.21-2.71,0.75-2.92,2.14l-0.4,2.57l17.79,2.76l-0.77,4.94
						l-17.83-2.76l-1.97,12.69l-4.9-0.76l3.13-20.2c0.64-4.11,4.48-6.96,8.59-6.32L240.62,446.44z"/>
					<path class="st2" d="M264.43,454.31l0-0.16c0-1.4-1.16-2.56-2.56-2.56l-11.36,0c-1.4,0-2.56,1.16-2.56,2.56v0.16
						c0,1.4,1.16,2.56,2.56,2.56l10.08,0c2.6,0,4.92,1.12,6.52,2.88c0.12,0.12,0.2,0.24,0.32,0.36c1.24,1.52,2,3.48,2,5.6
						c0,4.88-3.96,8.84-8.84,8.84l-8.76,0c-4.88,0-8.84-3.96-8.84-8.83l5,0c0,2.12,1.72,3.84,3.84,3.84l8.76,0
						c2.12,0,3.88-1.72,3.88-3.84c0-2.12-1.76-3.84-3.88-3.84l-10.08,0c-2.04,0-3.88-0.8-5.24-2.12c-0.36-0.36-0.68-0.76-0.96-1.2
						c-0.84-1.2-1.32-2.68-1.32-4.28l0-0.16c0-4.16,3.36-7.56,7.52-7.56l11.36,0c4.16,0,7.56,3.4,7.56,7.56v0.16L264.43,454.31z"/>
					<path class="st2" d="M278.53,459.53c0.76,4.9,5.38,8.27,10.28,7.51l13.83-2.16l0.77,4.94l-13.83,2.16
						c-7.63,1.19-14.8-4.05-15.99-11.68s4.05-14.8,11.68-15.99l13.83-2.16l0.77,4.94l-13.83,2.16
						C281.14,450.01,277.77,454.63,278.53,459.53z"/>
				</g>
				<g>
					<circle class="st1" cx="256" cy="257" r="187.5"/>
					<path class="st2" d="M177.11,448.27c-0.89-0.37-1.61-0.92-2.15-1.65c-0.54-0.73-0.88-1.56-1.01-2.48
						c-0.13-0.92-0.01-1.82,0.35-2.7c0.35-0.85,0.9-1.57,1.63-2.14c0.74-0.57,1.56-0.92,2.49-1.05c0.92-0.13,1.82-0.02,2.68,0.34
						c0.88,0.36,1.6,0.92,2.17,1.67c0.56,0.75,0.91,1.58,1.03,2.5c0.12,0.92,0,1.81-0.35,2.67c-0.55,1.34-1.49,2.28-2.83,2.84
						C179.78,448.82,178.44,448.82,177.11,448.27z"/>
					<path class="st2" d="M89.84,394.95l3.63-3.44l14.05,14.84c0.96,1.02,2.6,1.06,3.62,0.1l1.89-1.79l-12.38-13.07l3.63-3.44
						l12.41,13.1l9.32-8.83l3.41,3.6l-14.84,14.05c-3.02,2.86-7.8,2.76-10.66-0.26L89.84,394.95z"/>
					<path class="st2" d="M108.53,372.84l-22.24,17.01l-3.04-3.97l22.24-17.01L108.53,372.84z"/>
					<path class="st2" d="M65.16,358.21l5.6-0.46l25.73-2.15l-13.38,22.08l-2.9,4.81l-2.95-4.76l2.9-4.81l6.98-11.52l-13.43,1.12
						l-5.6,0.46L65.16,358.21z"/>
					<path class="st2" d="M68.37,347.17l2.39-1.03l-7.09-16.54l4.59-1.97l7.09,16.54l4.85-2.08c1.29-0.55,1.9-2.08,1.34-3.36
						l-8.05-18.78l4.59-1.97l8.05,18.78c1.64,3.82-0.16,8.25-3.99,9.89l-11.84,5.08c-3.82,1.64-8.27-0.11-9.91-3.93l-8.05-18.78
						l4.6-1.97L65,345.83C65.56,347.11,67.08,347.72,68.37,347.17z"/>
					<path class="st2" d="M49.21,278.6l-0.16,0.02c-1.39,0.2-2.37,1.51-2.17,2.9l1.61,11.24c0.2,1.39,1.51,2.37,2.9,2.17l0.16-0.02
						c1.39-0.2,2.37-1.51,2.17-2.9l-1.43-9.98c-0.37-2.57,0.41-5.03,1.93-6.86c0.1-0.14,0.21-0.23,0.31-0.37
						c1.33-1.44,3.16-2.47,5.26-2.77c4.83-0.69,9.31,2.66,10,7.49l1.24,8.67c0.69,4.83-2.66,9.31-7.49,10l-0.71-4.95
						c2.1-0.3,3.56-2.25,3.25-4.35l-1.24-8.67c-0.3-2.1-2.25-3.6-4.35-3.3c-2.1,0.3-3.55,2.29-3.25,4.39l1.43,9.98
						c0.29,2.02-0.24,3.95-1.35,5.49c-0.31,0.41-0.66,0.78-1.05,1.12c-1.07,1-2.47,1.69-4.05,1.91l-0.16,0.02
						c-4.12,0.59-7.96-2.25-8.55-6.37l-1.61-11.24c-0.59-4.12,2.29-7.97,6.41-8.56l0.16-0.02L49.21,278.6z"/>
					<path class="st2" d="M40.77,240.71l5,0.08l-0.18,11.48l23,0.36l-0.08,5l-23-0.36l-0.18,11.48l-5-0.08L40.77,240.71z"/>
					<path class="st2" d="M46.16,205.72l13.79,2.42c7.6,1.33,12.71,8.6,11.37,16.21c-1.33,7.61-8.61,12.71-16.21,11.37l-13.79-2.42
						l0.86-4.93l13.79,2.42c4.89,0.86,9.56-2.43,10.42-7.31c0.86-4.89-2.42-9.56-7.31-10.42l-13.79-2.42L46.16,205.72z"/>
					<path class="st2" d="M52.78,185.26c2.57-7.28,10.55-11.12,17.83-8.55c3.24,1.15,5.81,3.37,7.42,6.14
						c0.18,0.32,0.36,0.68,0.53,1.03c1.58,3.23,1.89,7.03,0.61,10.65l-4.66,13.2l-26.4-9.33L52.78,185.26z M71.47,201.4l3-8.49
						c1.65-4.68-0.81-9.83-5.49-11.48c-4.68-1.65-9.83,0.81-11.48,5.49l-3,8.49L71.47,201.4z"/>
					<path class="st2" d="M69.56,164.38l2.28,1.26l8.71-15.75l4.38,2.42l-8.71,15.75l4.62,2.55c1.23,0.68,2.8,0.22,3.48-1
						l9.89-17.89l4.38,2.42l-9.89,17.89c-2.01,3.64-6.61,4.94-10.25,2.92l-11.27-6.23c-3.64-2.01-4.99-6.6-2.98-10.24l9.89-17.89
						l4.38,2.42l-9.89,17.89C67.88,162.13,68.34,163.7,69.56,164.38z"/>
					<path class="st2" d="M95.67,112.39l21.95,17.38l-6.12,1.54l-22.06,5.5l13.89,11l-3.1,3.92l-21.89-17.33l6.12-1.54l22.06-5.5
						l-13.99-11.08L95.67,112.39z"/>
					<path class="st2" d="M121.5,88.1l3.36,3.7l-8.5,7.72l15.46,17.03l-3.7,3.36l-15.46-17.03l-8.5,7.72l-3.36-3.7L121.5,88.1z"/>
					<path class="st2" d="M149.66,78.31l-0.09-0.13c-0.76-1.17-2.37-1.51-3.54-0.75l-9.52,6.2c-1.17,0.76-1.51,2.37-0.75,3.54
						l0.09,0.13c0.76,1.17,2.37,1.51,3.54,0.75l8.45-5.5c2.18-1.42,4.73-1.75,7.04-1.15c0.17,0.04,0.3,0.09,0.46,0.13
						c1.87,0.6,3.58,1.82,4.73,3.6c2.66,4.09,1.51,9.57-2.58,12.23l-7.34,4.78c-4.09,2.66-9.57,1.51-12.23-2.58l4.19-2.73
						c1.16,1.78,3.54,2.28,5.31,1.12l7.34-4.78c1.78-1.16,2.31-3.56,1.16-5.34s-3.57-2.26-5.35-1.1l-8.45,5.5
						c-1.71,1.11-3.69,1.45-5.55,1.08c-0.5-0.11-0.98-0.27-1.46-0.48c-1.36-0.55-2.57-1.53-3.44-2.87l-0.09-0.13
						c-2.27-3.49-1.31-8.17,2.17-10.44l9.52-6.2c3.49-2.27,8.19-1.28,10.46,2.21l0.09,0.13L149.66,78.31z"/>
					<path class="st2" d="M205.79,61.3c2.43,7.33-1.55,15.27-8.88,17.7s-15.27-1.55-17.7-8.88s1.55-15.27,8.88-17.7
						C195.42,49.99,203.36,53.97,205.79,61.3z M201.04,62.87c-1.56-4.71-6.67-7.27-11.38-5.71c-4.71,1.56-7.27,6.67-5.71,11.38
						c1.56,4.71,6.67,7.27,11.38,5.71C200.05,72.69,202.61,67.58,201.04,62.87z"/>
					<path class="st2" d="M235.32,42.03l0.79,4.94l-20.18,3.25c-1.38,0.22-2.34,1.55-2.12,2.93l0.41,2.57L232,52.86l0.79,4.93
						l-17.81,2.87l2.04,12.67l-4.9,0.79l-3.25-20.18c-0.66-4.11,2.11-8,6.22-8.66L235.32,42.03z"/>
					<path class="st2" d="M267.51,55.61c-0.5,4.94,3.11,9.37,8.04,9.87l13.93,1.42l-0.51,4.97l-13.93-1.42
						c-7.68-0.78-13.29-7.67-12.51-15.35c0.78-7.68,7.67-13.29,15.35-12.51l13.93,1.42l-0.51,4.97l-13.93-1.42
						C272.44,47.07,268.01,50.68,267.51,55.61z"/>
					<path class="st2" d="M319.86,65.32c-1.92,7.48-9.57,11.99-17.04,10.07c-7.48-1.92-11.99-9.57-10.07-17.04
						c1.92-7.47,9.57-11.99,17.04-10.07C317.26,50.2,321.78,57.85,319.86,65.32z M315.02,64.08c1.24-4.8-1.67-9.72-6.47-10.96
						c-4.8-1.24-9.72,1.67-10.96,6.47c-1.23,4.8,1.67,9.72,6.47,10.96C308.86,71.79,313.78,68.88,315.02,64.08z"/>
					<path class="st2" d="M355.11,65.08L343.9,90.74l-4.58-2l7.15-16.35l-6.01,1.47l-5,1.26l-2.47-4.53l-3-5.42l-7.15,16.35l-4.58-2
						l11.22-25.65l3.04,5.52l5.47,9.95L349,66.6L355.11,65.08z"/>
					<path class="st2" d="M379.74,83.02c0.41,1.88,0.1,3.92-1.02,5.67c-1.64,2.56-4.58,3.81-7.42,3.42
						c-0.75-0.1-1.46-0.32-2.14-0.66c-0.07-0.04-0.13-0.09-0.2-0.13l-0.02,0.03l-11.28-7.23l-6.95,10.84l-4.21-2.7l15.12-23.58
						l14.85,9.52c1.75,1.12,2.88,2.85,3.29,4.72L379.74,83.02z M372.02,87.15c0.99,0.16,1.99-0.29,2.53-1.13
						c0.5-0.77,0.44-1.57,0.35-1.96c-0.1-0.44-0.39-1.1-1.13-1.58l-10.68-6.84l-2.79,4.34l10.68,6.85c0.3,0.19,0.65,0.32,1.01,0.36
						L372.02,87.15z"/>
					<path class="st2" d="M409.64,105.25l-9.31,10.46c-5.13,5.77-14,6.29-19.76,1.15c-5.77-5.13-6.29-14-1.15-19.77l9.31-10.46
						l3.74,3.32l-9.31,10.46c-3.3,3.71-2.96,9.41,0.74,12.71c3.71,3.3,9.41,2.96,12.71-0.74l9.31-10.46L409.64,105.25z"/>
					<path class="st2" d="M432.4,132.47l-3.89,3.14l-7.22-8.93l-17.89,14.46l-3.14-3.89l17.89-14.47l-7.22-8.93l3.89-3.14
						L432.4,132.47z"/>
					<path class="st2" d="M432.58,146.76l-2.26,1.28l8.88,15.66l-4.35,2.47l-8.88-15.66l-4.59,2.6c-1.22,0.69-1.66,2.27-0.96,3.49
						l10.08,17.79l-4.35,2.47l-10.08-17.79c-2.05-3.62-0.75-8.22,2.87-10.27l11.21-6.35c3.62-2.05,8.23-0.8,10.29,2.82l10.08,17.79
						l-4.35,2.46l-10.08-17.78C435.38,146.51,433.8,146.07,432.58,146.76z"/>
					<path class="st2" d="M439.86,199.05l-3.79,4.15l-1.96-5.25l3.79-4.15l3.97-4.34l0.18-0.2c1.04-1.33,1.4-3.13,0.77-4.81
						l-1.75-4.68l-12.07,4.5l-1.75-4.68l26.24-9.79l6.18,16.57c0.73,1.95,0.6,4-0.2,5.75c-0.84,1.76-2.3,3.21-4.25,3.94
						c-2.85,1.06-5.95,0.3-7.99-1.72c-0.54-0.52-0.98-1.13-1.32-1.81L439.86,199.05z M450.19,189.9c0.13,0.34,0.33,0.65,0.59,0.89
						c0.7,0.72,1.77,0.96,2.71,0.61c0.86-0.32,1.29-1,1.46-1.36c0.19-0.41,0.35-1.11,0.04-1.94l-4.43-11.88l-4.84,1.8L450.19,189.9z
						"/>
					<path class="st2" d="M463.49,243.75l0.16-0.02c1.39-0.14,2.43-1.42,2.28-2.81l-1.16-11.3c-0.14-1.39-1.42-2.43-2.81-2.29
						l-0.16,0.02c-1.39,0.14-2.43,1.42-2.29,2.81l1.03,10.03c0.27,2.59-0.61,5.01-2.2,6.78c-0.11,0.13-0.22,0.22-0.33,0.35
						c-1.38,1.39-3.26,2.35-5.37,2.56c-4.86,0.5-9.2-3.04-9.7-7.89l-0.9-8.71c-0.5-4.85,3.04-9.2,7.89-9.7l0.51,4.97
						c-2.11,0.22-3.64,2.1-3.43,4.21l0.9,8.72c0.22,2.11,2.11,3.68,4.22,3.47c2.11-0.22,3.64-2.14,3.42-4.25l-1.03-10.03
						c-0.21-2.03,0.4-3.94,1.57-5.43c0.32-0.39,0.69-0.75,1.1-1.08c1.11-0.96,2.53-1.59,4.12-1.75l0.16-0.02
						c4.14-0.42,7.87,2.57,8.29,6.71l1.16,11.3c0.43,4.14-2.61,7.87-6.75,8.29l-0.16,0.02L463.49,243.75z"/>
					<path class="st2" d="M457.7,259.13c-4.95-0.27-9.21,3.54-9.48,8.49l-0.77,13.98l-4.99-0.28l0.77-13.98
						c0.43-7.71,7.04-13.63,14.75-13.2c7.71,0.43,13.63,7.04,13.2,14.75l-0.77,13.98l-4.99-0.28l0.77-13.98
						C466.46,263.66,462.65,259.4,457.7,259.13z"/>
					<path class="st2" d="M441.51,284.55l27.65,4.45l-0.8,4.94l-27.65-4.45L441.51,284.55z"/>
					<path class="st2" d="M459.03,303.02l-2.51-0.68l-4.72,17.37l-4.82-1.31l4.72-17.37l-5.1-1.38c-1.35-0.37-2.78,0.45-3.14,1.8
						l-5.36,19.72l-4.83-1.31l5.36-19.72c1.09-4.01,5.25-6.36,9.27-5.27l12.43,3.38c4.01,1.09,6.41,5.23,5.32,9.24l-5.36,19.72
						l-4.82-1.31l5.36-19.72C461.19,304.81,460.38,303.38,459.03,303.02z"/>
					<path class="st2" d="M445.95,359.72l-25.43-11.71l5.58-2.94l20.13-10.54l-16.09-7.41l2.09-4.54l25.36,11.67l-5.58,2.93
						l-20.13,10.54l16.2,7.46L445.95,359.72z"/>
					<path class="st2" d="M428.1,362.26c-4.11-2.78-9.72-1.7-12.5,2.4l-7.85,11.59l-4.14-2.8l7.85-11.59
						c4.33-6.39,13.05-8.07,19.44-3.74c6.39,4.33,8.07,13.05,3.74,19.44l-7.85,11.59l-4.14-2.8l7.85-11.59
						C433.28,370.65,432.2,365.04,428.1,362.26z"/>
					<path class="st2" d="M413.18,393.44l-1.89-1.79l-12.38,13.07l-3.63-3.44l12.38-13.07l-3.83-3.63c-1.02-0.96-2.66-0.92-3.62,0.1
						l-14.05,14.84l-3.63-3.44l14.05-14.84c2.86-3.02,7.64-3.12,10.66-0.26l9.35,8.86c3.02,2.86,3.18,7.64,0.32,10.66l-14.05,14.84
						l-3.63-3.44l14.05-14.84C414.24,396.05,414.2,394.41,413.18,393.44z"/>
					<path class="st2" d="M334.85,448.29c-0.89,0.37-1.79,0.48-2.69,0.35c-0.9-0.14-1.72-0.48-2.46-1.04
						c-0.74-0.56-1.29-1.28-1.65-2.16c-0.35-0.86-0.47-1.74-0.35-2.67c0.12-0.92,0.46-1.76,1.02-2.5c0.56-0.75,1.27-1.3,2.14-1.65
						c0.88-0.36,1.78-0.48,2.71-0.35c0.93,0.13,1.76,0.48,2.49,1.05c0.74,0.57,1.28,1.28,1.63,2.14c0.55,1.34,0.55,2.67-0.01,4.01
						S336.18,447.74,334.85,448.29z"/>
				</g>
			</g>
		</g>
		<polygon class="st0" points="255.31,83.06 89.5,203.52 152.83,398.44 357.78,398.44 421.11,203.52 		"/>
		<g>
			<g>
				<path id="path1334_2_" class="st2" d="M256,311.75l10.3-17.83h-7.35v-91.13l18.75,17.74c1.21,1.51,2.06,3.49,2.11,5.52
					c0,8.22,0,13.11,0.01,14.9c-3.47,1.22-5.98,4.49-5.98,8.38c0,4.92,3.99,8.92,8.92,8.92c4.93,0,8.92-3.99,8.92-8.92
					c0-3.89-2.5-7.16-5.97-8.38l0-14.73c0-3.99-2.19-8.17-4.76-10.84c0.08,0.07,0.16,0.15,0,0c-0.06-0.06-19.89-18.83-19.89-18.83
					c-1.21-1.51-2.05-3.48-2.1-5.51v-10.31c6.81-1.37,11.94-7.38,11.94-14.6c0-8.23-6.67-14.89-14.89-14.89
					c-8.23,0-14.89,6.67-14.89,14.89c0,7.22,5.14,13.23,11.95,14.6v10.13c0,0.03,0,0.05,0,0.08v22.4c-0.05,2.03-0.9,4-2.11,5.5
					c0,0-19.82,18.77-19.89,18.82c-0.16,0.15-0.08,0.08,0,0c-2.57,2.66-4.76,6.85-4.76,10.84l0,14.19h-5.98v17.83h17.83v-17.83
					h-5.97c0,0,0.01-3.74,0.01-14.37c0.05-2.03,0.89-4.01,2.11-5.52l18.75-17.75v68.85h-7.36L256,311.75z"/>
			</g>
			<polyline class="st3" points="256.34,362.75 169.35,202.25 255.65,362.75 342.65,202.25 			"/>
		</g>
	</g>
</g>
<g id="Light_x5F_BG">
</g>
</svg>
